<svg width="24" height="24" viewBox="0 0 24 24" fill="none" xmlns="http://www.w3.org/2000/svg">
<path fill-rule="evenodd" clip-rule="evenodd" d="M8.4 15.975H17.4C18.3941 15.975 19 15.1452 19 14.1215V6.70715C19 5.68345 18.3941 5 17.4 5H6.6C5.60589 5 5 5.4763 5 6.5V18.3666L8.4 15.975ZM3.72 21.9065C3.42334 22.1356 3 21.9176 3 21.5358V6.70715C3 4.65975 4.61177 3 6.6 3H17.4C19.3882 3 21 4.65975 21 6.70715V14.1215C21 16.1689 19.3882 18 17.4 18H9L3.72 21.9065ZM7.5 14L10.5 7H12.5L9.5 14H7.5ZM16.5 7H14.5L11.5 14H13.5L16.5 7Z" fill="#408040"/>
</svg>
